<?xml version="1.0" encoding="UTF-8"?>
<svg id="Layer_1" data-name="Layer 1" xmlns="http://www.w3.org/2000/svg" viewBox="0 0 379.32 429.45">
  <defs>
    <style>
      .cls-1 {
        fill: #0e58a9;
      }

      .cls-1, .cls-2 {
        fill-rule: evenodd;
      }

      .cls-2 {
        fill: #1855a6;
      }
    </style>
  </defs>
  <path class="cls-2" d="M133.42,109.88c-11.07,0-20.04,8.98-20.04,20.05s8.98,20.04,20.04,20.04,20.05-8.98,20.05-20.04-8.98-20.05-20.05-20.05ZM138.78,128.69c-3.76,0-6.8-3.05-6.8-6.8s3.05-6.8,6.8-6.8,6.8,3.05,6.8,6.8-3.05,6.8-6.8,6.8Z"/>
  <path class="cls-2" d="M121.59,288.06c1.85,1.4,4.2,1.61,6.27.55,2.07-1.06,3.28-3.08,3.23-5.41-.17-7.71-1.33-17.48-5.57-23.64-.39-.56-.79-.99-1.34-1.39l-34.76-25.94c-2.37-1.77-5.64-1.54-7.73.56l-9.45,9.45c-1.26,1.26-1.84,2.82-1.72,4.59.12,1.77.92,3.25,2.33,4.32l48.74,36.91Z"/>
  <path class="cls-1" d="M304.97,89.2c-31.57-24.21-70.96-38.71-113.74-39.06-.68,0-1.26-.45-1.43-1.12-.49-1.91-1.01-3.85-1.54-5.84-21.23-79.37-46.15-31.38-68.92,2.15-42.3,62.27-89.87,52.49-83.52,171.2.04.79.7,1.33,1.48,1.42,29.44,3.4,160.25,36.94,181-42.8.19-.74.92-1.22,1.68-1.1.75.12,1.29.78,1.26,1.54-1.17,25.24-12.63,71.4-79.3,81.08-.69.1-1.34-.27-1.6-.92-1.61-3.97-8.44-17.48-26.99-18.4-.73-.04-1.37.45-1.53,1.16-.16.71.2,1.43.88,1.71,10.62,4.46,26.17,18.1,26.65,59.71,0,.49.22.91.62,1.2l74.14,53.55s10.51-28.46-33.6-54.4c-.06-.03-.1-.06-.16-.1l-17.93-13.79s48.45-19.84,65.07-50.76c15.62-29.08,43.08-66.32,77.39-41.86.6.43.8,1.2.48,1.86-.32.67-1.06,1-1.77.79-11.64-3.43-32.97-7.11-41.49,8.29-12,21.69-15.69,44.76-8.31,76.14,7.13,30.3,2.21,48.56-6.86,52.27-.58.24-1.2.1-1.64-.34-3.7-3.82-22.57-22.59-40.87-28.33-.68-.21-1.4.07-1.75.7-.35.63-.21,1.39.33,1.86,9.8,8.42,29.82,29.18,22.46,53.25-.17.57-.02,1.14.42,1.54l5.39,4.92c.39.35.88.47,1.39.34,27.01-7.19,51.3-21.07,70.99-39.75.58-.55,1.5-.55,2.07.01.56.55.6,1.44.09,2.04-30.26,35.47-75.28,57.97-125.56,57.97-91.11,0-164.97-73.86-164.97-164.96,0-25.98,10.4-63.12,22.05-90.58.3-.71.02-1.52-.65-1.89-.67-.37-1.5-.18-1.94.44C12.87,161.25,0,199.02,0,239.79c0,104.74,84.91,189.66,189.66,189.66s189.66-84.91,189.66-189.66c0-61.37-29.15-115.93-74.35-150.6ZM127.58,203.07c-28.03,0-50.76-22.73-50.76-50.76s22.72-50.76,50.76-50.76,50.76,22.73,50.76,50.76-22.73,50.76-50.76,50.76Z"/>
</svg>